<?xml version="1.0" standalone="no"?><!DOCTYPE svg PUBLIC "-//W3C//DTD SVG 1.1//EN" "http://www.w3.org/Graphics/SVG/1.1/DTD/svg11.dtd"><svg t="1777296738297" class="icon" viewBox="0 0 1024 1024" version="1.1" xmlns="http://www.w3.org/2000/svg" p-id="4867" xmlns:xlink="http://www.w3.org/1999/xlink" width="200" height="200"><path d="M560.64 521.984c-1.728 139.52-51.2 272.832-151.36 386.816-7.872 8.96-16 17.6-24.448 25.984-13.952 13.824-30.656 18.304-49.28 12.416a45.568 45.568 0 0 1-32.832-38.592c-2.752-16.704 3.392-30.4 14.72-42.688 15.232-16.64 30.72-33.28 44.352-51.136a482.56 482.56 0 0 0 95.68-222.912c22.016-144.64-10.752-275.776-99.968-392.192-12.416-16.192-26.816-31.104-40.704-46.208-14.528-15.744-18.688-35.776-10.624-54.144a48.128 48.128 0 0 1 78.528-14.08c19.584 19.328 37.696 40.256 54.4 62.272A591.744 591.744 0 0 1 550.784 401.28c6.592 36.032 9.6 72.32 9.92 120.704z m71.232-8.768c1.728-117.44 42.88-218.816 124.8-303.232 18.048-18.56 43.84-21.696 63.616-8 24.32 16.896 28.416 50.944 7.936 72.32-21.12 22.08-40.256 45.568-55.424 72.128-25.6 44.8-40.512 92.864-43.52 144.384-5.76 100.8 26.304 187.712 96.832 259.968 26.816 27.52 15.616 70.72-18.816 81.216a46.144 46.144 0 0 1-48.768-12.416 426.432 426.432 0 0 1-119.552-227.84 441.024 441.024 0 0 1-7.04-78.528z m-239.744-3.392c-1.536 118.464-43.008 220.544-126.08 305.472a46.08 46.08 0 0 1-50.88 12.288c-18.944-6.592-29.76-20.864-32-40.896a46.976 46.976 0 0 1 14.848-39.488c18.496-18.56 34.688-39.04 48.384-61.632 28.608-46.976 45.184-97.92 48.384-152.896 5.76-100.544-26.368-187.392-96.768-259.456-25.216-25.92-17.024-65.792 13.44-79.36a47.808 47.808 0 0 1 54.016 10.432 428.288 428.288 0 0 1 114.624 204.8c8.128 33.088 11.904 66.688 12.032 100.736z m-168.704 16.064c-0.832 56.384-26.048 118.72-76.608 170.432a46.144 46.144 0 0 1-48.704 12.992 45.824 45.824 0 0 1-33.28-36.096 44.992 44.992 0 0 1 11.52-42.24c13.376-14.08 25.024-29.248 33.728-46.72a168.32 168.32 0 0 0-28.16-188.672c-9.408-9.856-16.896-20.416-18.048-34.56a48.384 48.384 0 0 1 26.24-46.848 47.232 47.232 0 0 1 53.504 6.912c25.6 24.192 44.992 52.928 58.752 85.312 14.08 32.896 21.12 67.584 21.056 119.488z m577.088-12.096c0.96-72.192 26.112-134.464 76.864-186.24a46.016 46.016 0 0 1 48.704-12.8c17.92 5.44 29.312 17.92 33.28 36.352a45.632 45.632 0 0 1-12.032 42.624 189.376 189.376 0 0 0-32.896 45.44 168.256 168.256 0 0 0 28.16 189.952c7.616 7.872 14.08 16.256 16.64 27.264a48.192 48.192 0 0 1-22.848 52.288 47.168 47.168 0 0 1-56.576-6.272 256.768 256.768 0 0 1-66.56-107.584 259.712 259.712 0 0 1-12.8-81.024z m-213.44 164.032c0.896 2.304 1.6 3.584 2.112 4.992a500.864 500.864 0 0 0 116.416 185.984c17.28 17.6 21.184 39.616 10.688 59.2a48.128 48.128 0 0 1-76.8 10.88 518.144 518.144 0 0 1-62.272-73.28c-12.992-18.816-24.832-38.4-36.928-57.728-0.896-1.472-1.216-4.288-0.512-5.76a651.52 651.52 0 0 0 46.208-120.832c0.192-0.896 0.512-1.664 1.088-3.456z m1.28-331.136c-4.48-14.72-8.32-28.416-12.8-41.856a602.112 602.112 0 0 0-33.536-81.536c-1.28-2.56-1.536-4.608 0-7.296a604.864 604.864 0 0 1 96.96-126.912 48 48 0 0 1 80.32 18.56c6.016 18.752 1.024 35.2-12.288 49.728-14.912 16.32-29.888 32.64-43.52 49.92a484.224 484.224 0 0 0-72.704 132.416c-0.512 2.112-1.28 4.096-2.368 7.04z" p-id="4868" fill="#1296db"></path></svg>