<?xml version="1.0" standalone="no"?><!DOCTYPE svg PUBLIC "-//W3C//DTD SVG 1.1//EN" "http://www.w3.org/Graphics/SVG/1.1/DTD/svg11.dtd"><svg t="1777294621792" class="icon" viewBox="0 0 1024 1024" version="1.1" xmlns="http://www.w3.org/2000/svg" p-id="3016" xmlns:xlink="http://www.w3.org/1999/xlink" width="200" height="200"><path d="M445.0304 833.4336c20.7872 4.096 41.8816 6.144 63.1808 6.144 21.1968 0 42.1888-2.1504 63.0784-6.2464a322.3552 322.3552 0 0 0 60.7232-18.5344c19.5584-8.0896 38.1952-18.0224 55.9104-29.7984 17.6128-11.776 33.9968-25.088 48.9472-40.0384 15.0528-15.0528 28.4672-31.232 40.3456-48.8448 11.776-17.6128 21.8112-36.1472 29.9008-55.7056q6.2464-14.848 10.8544-30.1056 4.608-14.9504 7.68-30.3104c4.1984-20.7872 6.3488-41.6768 6.4512-62.8736 0-21.1968-2.1504-42.1888-6.2464-62.8736-4.1984-20.7872-10.3424-40.96-18.432-60.6208-8.192-19.5584-18.1248-38.0928-29.9008-55.7056a324.5056 324.5056 0 0 0-89.3952-89.088A324.03456 324.03456 0 0 0 508.2112 194.56a324.03456 324.03456 0 0 0-180.0192 54.272 329.13408 329.13408 0 0 0-49.0496 40.1408 317.0304 317.0304 0 0 0-40.2432 48.8448 321.8432 321.8432 0 0 0-30.0032 55.808q-6.3488 15.2576-11.0592 31.0272-4.4032 14.5408-7.3728 29.4912a324.7104 324.7104 0 0 0 0 125.8496c4.1984 20.7872 10.3424 40.96 18.432 60.5184 8.192 19.5584 18.1248 38.1952 30.0032 55.808a317.0304 317.0304 0 0 0 40.2432 48.8448c15.0528 14.9504 31.4368 28.3648 49.0496 40.1408 17.7152 11.776 36.352 21.7088 56.0128 29.7984s39.936 14.2336 60.8256 18.3296z m7.0656-596.992c18.5344-3.6864 37.1712-5.5296 56.1152-5.5296 18.8416 0.1024 37.4784 1.9456 55.9104 5.7344 18.5344 3.6864 36.4544 9.1136 53.8624 16.384 17.408 7.168 33.8944 15.9744 49.5616 26.4192A289.03424 289.03424 0 0 1 746.8032 358.4c10.4448 15.5648 19.3536 32.0512 26.624 49.3568 7.2704 17.408 12.6976 35.2256 16.4864 53.6576 3.6864 18.3296 5.632 36.9664 5.632 55.7056 0 18.8416-1.8432 37.4784-5.4272 55.9104-3.6864 18.432-9.216 36.2496-16.384 53.6576-7.2704 17.3056-16.0768 33.8944-26.624 49.4592a278.86592 278.86592 0 0 1-35.7376 43.4176c-13.312 13.2096-27.8528 25.088-43.52 35.5328a292.5568 292.5568 0 0 1-49.664 26.5216c-17.5104 7.168-35.4304 12.5952-53.9648 16.2816-18.5344 3.584-37.1712 5.4272-56.0128 5.4272-18.944 0-37.5808-1.8432-56.1152-5.4272-18.5344-3.6864-36.4544-9.1136-53.8624-16.2816-17.5104-7.2704-33.9968-16.0768-49.7664-26.5216a284.7744 284.7744 0 0 1-79.2576-78.9504 284.13952 284.13952 0 0 1-26.624-49.4592c-7.168-17.408-12.5952-35.2256-16.2816-53.6576a284.39552 284.39552 0 0 1 0-111.7184c3.6864-18.432 9.1136-36.352 16.2816-53.6576 7.2704-17.408 16.0768-33.8944 26.624-49.5616 10.4448-15.5648 22.4256-30.0032 35.7376-43.3152q10.24-10.1376 21.2992-19.2512 10.752-8.704 22.2208-16.384a285.9008 285.9008 0 0 1 49.7664-26.4192c17.408-7.168 35.328-12.5952 53.8624-16.2816z m37.2736 481.3824q-10.4448-0.9216-20.6848-2.9696c-13.0048-2.56-25.7024-6.4512-37.9904-11.4688-12.288-5.12-23.9616-11.264-35.0208-18.6368a204.68736 204.68736 0 0 1-55.808-55.6032 207.4624 207.4624 0 0 1-18.7392-34.816c-5.0176-12.288-8.9088-24.8832-11.4688-37.888a203.1616 203.1616 0 0 1-3.8912-39.3216 201.19552 201.19552 0 0 1 15.36-77.1072c5.12-12.288 11.3664-23.8592 18.7392-34.9184 7.3728-10.9568 15.7696-21.0944 25.1904-30.5152 9.4208-9.3184 19.6608-17.7152 30.6176-25.088 11.0592-7.3728 22.7328-13.5168 35.0208-18.6368 12.288-5.0176 24.9856-8.8064 37.9904-11.4688 13.0048-2.56 26.2144-3.7888 39.5264-3.7888 13.2096 0 26.4192 1.2288 39.424 3.7888 13.1072 2.6624 25.7024 6.4512 37.9904 11.4688a200.73472 200.73472 0 0 1 65.6384 43.7248c9.4208 9.4208 17.8176 19.5584 25.1904 30.5152 7.3728 11.0592 13.6192 22.6304 18.7392 34.9184q4.096 9.728 7.0656 19.8656 2.6624 8.8064 4.4032 17.92 2.048 10.0352 3.072 20.1728 0.9216 9.5232 0.9216 19.1488c0.1024 13.312-1.1264 26.4192-3.584 39.5264-2.56 13.0048-6.3488 25.7024-11.3664 37.9904-5.0176 12.288-11.264 23.8592-18.6368 34.9184s-15.7696 21.2992-25.1904 30.72c-9.4208 9.3184-19.6608 17.7152-30.72 25.088-11.1616 7.3728-22.8352 13.5168-35.2256 18.5344-12.288 5.0176-25.088 8.8064-38.0928 11.264-13.1072 2.56-26.3168 3.6864-39.6288 3.584q-9.5232 0-18.8416-0.9216z m18.8416-349.9008c-9.8304 0-19.6608 0.9216-29.2864 2.8672-9.6256 1.9456-19.0464 4.7104-28.0576 8.4992-9.1136 3.7888-17.7152 8.3968-25.9072 13.824-8.192 5.4272-15.7696 11.5712-22.7328 18.5344a148.54144 148.54144 0 0 0-32.4608 48.4352q-2.9696 7.0656-5.2224 14.4384-1.9456 6.656-3.2768 13.5168c-1.9456 9.6256-2.8672 19.3536-2.8672 29.0816 0 9.8304 0.9216 19.5584 2.8672 29.0816 1.8432 9.6256 4.7104 18.944 8.4992 28.0576 3.7888 9.0112 8.3968 17.6128 13.824 25.8048 5.5296 8.0896 11.6736 15.6672 18.6368 22.528a146.81088 146.81088 0 0 0 48.64 32.3584c9.0112 3.7888 18.432 6.656 28.0576 8.4992 9.6256 1.9456 19.456 2.8672 29.2864 2.8672s19.5584-0.9216 29.184-2.8672c9.6256-1.8432 19.0464-4.7104 28.16-8.4992 9.0112-3.6864 17.7152-8.2944 25.8048-13.7216 8.192-5.4272 15.7696-11.6736 22.7328-18.6368a149.5552 149.5552 0 0 0 32.5632-48.3328c3.6864-9.1136 6.5536-18.432 8.4992-28.0576 1.8432-9.5232 2.8672-19.2512 2.8672-29.0816-0.2048-9.728-1.2288-19.3536-3.2768-28.8768a150.03648 150.03648 0 0 0-22.7328-53.3504c-5.5296-8.0896-11.6736-15.5648-18.6368-22.528-6.8608-6.8608-14.4384-13.0048-22.528-18.432-8.0896-5.5296-16.6912-10.1376-25.7024-13.9264-9.0112-3.7888-18.3296-6.656-27.9552-8.704-9.5232-1.9456-19.2512-3.1744-28.9792-3.3792z m-76.6976 165.376c-4.9152 0.4096-9.4208-0.8192-13.4144-3.9936-3.8912-3.1744-6.144-7.168-6.7584-12.1856 0.2048-12.6976 2.7648-24.9856 7.7824-36.7616q3.584-8.4992 8.704-16.1792 5.4272-7.9872 12.3904-14.9504a96.1536 96.1536 0 0 1 31.232-20.8896q8.9088-3.7888 18.1248-5.7344 9.216-1.9456 18.7392-2.048c4.5056 0 8.2944 1.536 11.4688 4.7104 3.1744 3.1744 4.7104 6.9632 4.7104 11.3664 0 4.5056-1.536 8.2944-4.7104 11.4688-3.1744 3.1744-6.9632 4.7104-11.4688 4.7104-32.3584 3.9936-60.7232 32.256-60.7232 64.512-0.3072 4.3008-1.9456 7.9872-5.0176 11.0592-3.1744 3.072-6.656 4.608-11.0592 4.9152z" p-id="3017" fill="#1296db"></path></svg>