<?xml version="1.0" standalone="no"?><!DOCTYPE svg PUBLIC "-//W3C//DTD SVG 1.1//EN" "http://www.w3.org/Graphics/SVG/1.1/DTD/svg11.dtd"><svg t="1777296835298" class="icon" viewBox="0 0 1024 1024" version="1.1" xmlns="http://www.w3.org/2000/svg" p-id="6528" xmlns:xlink="http://www.w3.org/1999/xlink" width="200" height="200"><path d="M755.989689 153.45842c-203.491384-204.595229-533.428987-204.595229-736.904373 0-25.436423 25.596401-25.436423 67.046572 0 92.626974s66.678623 25.580403 92.115046 0c152.618538-153.466419 400.07174-153.466419 552.690278 0 50.872846 51.160806 50.872846 134.093143 0 185.237951-25.436423 25.596401-25.436423 67.046572 0 92.626974s66.678623 25.580403 92.115047 0c101.713697-102.305613 101.713697-268.186286-0.015998-370.491899z" fill="#00BC7D" p-id="6529"></path><path d="M512.055992 223.768533C229.455733 223.768533 0.383946 452.744333 0.383946 735.21661c0 35.307035 28.635973 63.911013 63.959006 63.911013s63.959006-28.603978 63.959006-63.911013c0-211.84221 171.799841-383.578059 383.754034-383.578059a127.886016 127.886016 0 0 1 127.918012 127.838023c0 35.323033 28.635973 63.943008 63.959005 63.943008S767.892015 514.815604 767.892015 479.492571c0-141.212142-114.543892-255.724039-255.836023-255.724038z" fill="#00BC7D" p-id="6530"></path><path d="M1005.042666 777.53066a64.678905 64.678905 0 0 0-92.003062 0c-152.426565 153.642394-399.591807 153.642394-552.018373 0-50.824853-51.208799-50.824853-134.253121 0-185.477917a65.942727 65.942727 0 0 0 0-92.738959 64.678905 64.678905 0 0 0-92.003062 0c-101.633708 102.433595-101.633708 268.506241 0 370.955834 203.23542 204.883188 532.773079 204.883188 736.024497 0a65.942727 65.942727 0 0 0 0-92.738958z" fill="#00BC7D" p-id="6531"></path><path d="M959.849021 223.768533a63.943008 63.943008 0 0 0-63.879017 64.022996c0 212.098174-171.623865 384.041994-383.306097 384.041994-70.566077 0-127.758034-57.303942-127.758034-128.013998 0-35.355028-28.603978-64.006999-63.879017-64.006999s-63.879017 28.651971-63.879017 64.006999c0 141.404115 114.399913 256.043994 255.532065 256.043994 282.264307 0 511.064132-229.26376 511.064132-512.07199a63.991001 63.991001 0 0 0-63.895015-64.022996z" fill="#00BC7D" p-id="6532"></path></svg>