<?xml version="1.0" standalone="no"?><!DOCTYPE svg PUBLIC "-//W3C//DTD SVG 1.1//EN" "http://www.w3.org/Graphics/SVG/1.1/DTD/svg11.dtd"><svg t="1777297336509" class="icon" viewBox="0 0 1024 1024" version="1.1" xmlns="http://www.w3.org/2000/svg" p-id="23611" xmlns:xlink="http://www.w3.org/1999/xlink" width="200" height="200"><path d="M454.528 996.672a488.448 488.448 0 0 1-391.04-292.032A486.4 486.4 0 0 1 24 512a485.76 485.76 0 0 1 93.056-286.72 39.744 39.744 0 0 1 4.608-6.144A487.232 487.232 0 0 1 563.712 26.688a488.448 488.448 0 0 1 396.8 292.608A486.4 486.4 0 0 1 1000 512a485.76 485.76 0 0 1-93.056 286.72 39.744 39.744 0 0 1-4.608 6.144 487.232 487.232 0 0 1-442.048 192.448 39.744 39.744 0 0 1-5.76-0.64z m-13.76-82.88l105.408-182.592H167.808a408.32 408.32 0 0 0 272.96 182.592z m88.96 5.824a407.104 407.104 0 0 0 294.656-145.152L718.976 592l-68.672 118.912a40 40 0 0 1-0.32 0.512L529.792 919.68zM672.832 512L592.384 372.8H431.616L351.232 512l80.384 139.2h160.768L672.768 512z m81.28-19.2l119.936 207.616c29.44-56.32 46.016-120.448 46.016-188.416 0-48.896-8.576-95.744-24.32-139.2H684.8l68.288 118.336 1.024 1.664z m-625.664 158.4H339.2L270.912 532.864a39.936 39.936 0 0 1-1.024-1.664L150.016 323.584c-29.44 56.32-46.016 120.448-46.016 188.416 0 48.896 8.576 95.744 24.32 139.2z m71.232-401.664L305.024 432l68.672-118.912a40 40 0 0 1 0.32-0.512L494.208 104.32A407.104 407.104 0 0 0 199.68 249.536z m383.616-139.328L477.824 292.8h378.368a408.32 408.32 0 0 0-272.96-182.592z" fill="#8C4FFF" p-id="23612"></path></svg>